<svg width="225" height="357" xmlns="http://www.w3.org/2000/svg" stroke="null" style="vector-effect:non-scaling-stroke" version="1.0">
    <path d="M63.673.927c-14.245 2.387-22.996 7.78-28.21 17.684-4.096 7.516-4.376 10.7-5.027 45.98-.559 31.745-.652 34.22-2.42 37.227-1.025 1.857-7.263 8.931-13.966 15.74-6.61 6.897-12.476 13.528-13.034 14.766-1.024 2.742 1.396 7.693 5.213 10.346 3.538 2.476 6.983 1.415 15.735-4.775 4.096-2.83 7.634-5.217 7.913-5.217.186 0 .559 43.858.652 97.443.28 92.226.372 97.797 2.048 102.395 3.817 10.7 11.451 18.038 23.368 22.283 5.586 2.033 5.866 2.033 55.861 2.033h50.275l6.33-2.033c11.824-3.89 18.993-10.434 23.276-21.134l2.048-5.128.28-97.974c.092-53.85.465-97.885.65-97.885.28 0 3.818 2.388 7.914 5.217 8.007 5.66 11.731 6.986 14.99 5.306 4.562-2.3 7.634-8.578 5.772-11.672-.372-.796-6.238-7.074-12.941-14.06-6.703-6.985-12.941-14.06-13.965-15.74-1.583-2.829-1.862-5.924-2.328-37.137-.372-19.453-1.024-35.547-1.582-37.58-3.724-13.087-10.8-20.161-24.393-24.582C162.267.573 160.684.573 115.065.396 89.182.308 66.093.485 63.673.926zm11.358 11.23c-.093 3.802-.558 7.78-1.21 8.842-1.024 1.857-16.107 12.644-17.596 12.644-.466 0-.745-5.57-.745-12.379V8.884l2.42-.972c2.794-.973 10.614-2.299 14.617-2.476l2.514-.088v6.808zm68.895.795c0 10.434 1.21 12.291 14.244 21.134l10.428 7.073.279 29.8.186 29.71-8.658-2.918c-17.41-5.925-25.603-7.074-49.53-7.074-23.182.088-31.468 1.15-46.923 6.19-3.817 1.237-7.262 2.21-7.727 2.21-.373 0-.652-12.998-.559-28.915l.28-28.914 10.706-7.428c6.517-4.42 11.358-8.4 12.29-10.168 1.117-2.034 1.582-5.04 1.675-10.611V5.348h63.309v7.604zm20.948-5.482 3.724 1.061.279 12.556c.093 6.897 0 12.556-.373 12.556-1.582 0-17.13-11.318-17.968-13.086-.559-1.15-1.024-5.04-1.024-8.666v-6.72l5.772.619c3.166.354 7.448 1.15 9.59 1.68zM49.894 57.076v45.45l-2.98 1.503c-1.675.796-4.654 2.653-6.516 4.067l-3.538 2.653V72.196c0-40.498.372-44.477 4.282-51.905 1.77-3.448 6.89-8.753 8.38-8.753.186 0 .372 20.514.372 45.538zM179.956 15.25c4.096 4.156 6.796 11.584 7.727 21.222.931 9.285 1.304 75.868.466 75.868-.28 0-2.42-1.415-4.841-3.184-2.514-1.768-5.4-3.625-6.518-4.156l-2.14-.884V57.783c0-43.858.092-46.245 1.675-45.45.838.442 2.514 1.769 3.63 2.918zm-39.754 82.853c15.827 3.007 29.699 8.4 38.637 14.856 6.703 4.951 6.703 7.25-.093 25.908-2.887 8.046-6.61 17.154-8.286 20.337-2.793 5.217-7.262 10.611-8.845 10.611-.28 0-4.003-.973-8.1-2.122-13.872-3.98-24.578-5.305-42.64-5.305-18.155 0-28.303 1.326-42.175 5.305-5.772 1.68-8.1 1.945-9.496 1.238-2.607-1.326-6.145-6.013-8.938-12.026-4.19-8.93-12.475-33.159-12.475-36.43 0-3.98 4.282-7.782 14.803-12.91 11.544-5.66 25.882-9.55 41.988-11.495 8.007-.973 36.961.353 45.62 2.033zM30.342 117.47v7.782l-9.03 6.366c-9.776 6.897-12.848 7.781-13.872 4.068-.466-1.68 0-2.83 1.676-4.599 11.823-12.379 20.668-21.398 20.947-21.398.093 0 .28 3.537.28 7.781zm182.2 10.523c4.189 4.598 5.027 5.924 4.561 7.781-.93 3.625-4.096 2.653-13.872-4.156l-9.03-6.455v-7.958l.092-7.958 6.518 6.632c3.63 3.625 8.844 9.107 11.73 12.114zm-23.928 66.14c0 34.31-.279 62.34-.651 62.34-.466 0-1.77-1.504-3.073-3.272-1.303-1.769-5.306-6.013-9.03-9.462l-6.61-6.278-1.025-9.638c-2.7-26.173 0-50.048 7.448-65.61 2.42-5.04 5.214-12.203 11.545-29.357.186-.53.651-1.061.93-1.061.28 0 .466 28.03.466 62.339zm-141.7-30.506c2.049 4.598 4.656 12.38 5.773 17.243 2.234 10.434 3.445 33.159 2.327 47.749l-.651 9.727-6.704 6.631c-3.724 3.626-7.634 7.782-8.751 9.196l-2.048 2.565v-58.714l.093-58.713 3.072 7.958c1.676 4.333 4.748 11.76 6.89 16.358zm84.723 5.394c4.282.442 11.823 1.946 16.758 3.184 4.934 1.237 10.613 2.475 12.661 2.74 3.259.354 3.538.531 3.073 2.742-2.048 9.815-2.7 19.895-2.235 36.342.559 18.746 1.955 29.799 5.586 44.3l2.142 8.4-3.259-1.68c-3.817-1.768-4.096-1.768-18.806 1.857-25.137 6.279-51.206 5.836-75.878-1.237-9.123-2.565-9.31-2.565-13.685-.443-1.862.885-3.445 1.592-3.445 1.504 0-.089.838-3.714 1.862-8.047 5.772-25.378 6.424-62.958 1.396-82.057-.558-1.946-.372-2.034 2.142-1.68 1.49.177 6.051-.62 10.055-1.857 17.782-5.217 38.823-6.632 61.633-4.068zm51.391 91.873c1.955 3.183 4.097 7.516 4.562 9.726 1.117 4.687 1.397 24.582.28 23.344-4.097-4.421-14.245-32.01-16.386-44.123l-.559-3.537 4.19 4.42c2.327 2.388 5.865 6.986 7.913 10.17zM52.314 250.459c-4.282 18.657-6.982 26.704-12.568 37.845l-2.886 5.748v-12.468c0-12.026.093-12.645 2.793-17.685 2.793-5.305 10.893-15.386 12.29-15.386.465 0 .558.885.371 1.946zm22.53 21.84c23.183 6.102 51.393 5.925 76.344-.353 10.24-2.565 11.637-2.653 14.523-.885 5.68 3.626 15.362 20.515 19.645 34.486 7.448 24.316-2.42 41.824-25.51 45.538-4.19.619-21.04.884-51.299.707l-45.154-.265-6.237-2.299c-8.752-3.272-13.128-6.897-16.758-13.883-2.98-5.659-3.073-6.278-2.98-16.093 0-9.196.28-10.876 3.073-18.127 5.213-13.44 11.358-23.697 17.223-29.091 3.259-2.83 5.307-2.83 17.13.265z" stroke-width=".1"/>
    <path d="M90.858 286.093c-1.769 2.034 1.862 2.83 14.99 3.449 14.523.707 25.416-.265 25.789-2.21.186-1.15-1.863-1.327-17.224-1.327-9.59.088-18.62-.177-19.924-.53-1.769-.531-2.793-.266-3.63.618z" stroke-width=".1"/>
</svg>
