<svg xmlns="http://www.w3.org/2000/svg" viewBox="0 0 80 80">
    <path style="line-height:normal;text-indent:0;text-align:start;text-decoration-line:none;text-decoration-style:solid;text-decoration-color:#000;text-transform:none;block-progression:tb;isolation:auto;mix-blend-mode:normal" d="M 11 10 A 1.0001 1.0001 0 0 0 10 11 L 10 69 A 1.0001 1.0001 0 0 0 11 70 L 69 70 A 1.0001 1.0001 0 0 0 70 69 L 70 11 A 1.0001 1.0001 0 0 0 69 10 L 11 10 z M 12 12 L 23 12 A 1 1 0 0 0 24 13 A 1 1 0 0 0 25 12 L 39 12 A 1 1 0 0 0 40 13 A 1 1 0 0 0 41 12 L 55 12 A 1 1 0 0 0 56 13 A 1 1 0 0 0 57 12 L 68 12 L 68 23 A 1 1 0 0 0 67 24 A 1 1 0 0 0 68 25 L 68 39 A 1 1 0 0 0 67 40 A 1 1 0 0 0 68 41 L 68 55 A 1 1 0 0 0 67 56 A 1 1 0 0 0 68 57 L 68 68 L 57 68 A 1 1 0 0 0 56 67 A 1 1 0 0 0 55 68 L 41 68 A 1 1 0 0 0 40 67 A 1 1 0 0 0 39 68 L 25 68 A 1 1 0 0 0 24 67 A 1 1 0 0 0 23 68 L 12 68 L 12 57 A 1 1 0 0 0 13 56 A 1 1 0 0 0 12 55 L 12 41 A 1 1 0 0 0 13 40 A 1 1 0 0 0 12 39 L 12 25 A 1 1 0 0 0 13 24 A 1 1 0 0 0 12 23 L 12 12 z M 24 15 A 1 1 0 0 0 23 16 A 1 1 0 0 0 24 17 A 1 1 0 0 0 25 16 A 1 1 0 0 0 24 15 z M 40 15 A 1 1 0 0 0 39 16 A 1 1 0 0 0 40 17 A 1 1 0 0 0 41 16 A 1 1 0 0 0 40 15 z M 56 15 A 1 1 0 0 0 55 16 A 1 1 0 0 0 56 17 A 1 1 0 0 0 57 16 A 1 1 0 0 0 56 15 z M 24 19 A 1 1 0 0 0 23 20 A 1 1 0 0 0 24 21 A 1 1 0 0 0 25 20 A 1 1 0 0 0 24 19 z M 40 19 A 1 1 0 0 0 39 20 A 1 1 0 0 0 40 21 A 1 1 0 0 0 41 20 A 1 1 0 0 0 40 19 z M 56 19 A 1 1 0 0 0 55 20 A 1 1 0 0 0 56 21 A 1 1 0 0 0 57 20 A 1 1 0 0 0 56 19 z M 16 23 A 1 1 0 0 0 15 24 A 1 1 0 0 0 16 25 A 1 1 0 0 0 17 24 A 1 1 0 0 0 16 23 z M 20 23 A 1 1 0 0 0 19 24 A 1 1 0 0 0 20 25 A 1 1 0 0 0 21 24 A 1 1 0 0 0 20 23 z M 24 23 A 1 1 0 0 0 23 24 A 1 1 0 0 0 24 25 A 1 1 0 0 0 25 24 A 1 1 0 0 0 24 23 z M 28 23 A 1 1 0 0 0 27 24 A 1 1 0 0 0 28 25 A 1 1 0 0 0 29 24 A 1 1 0 0 0 28 23 z M 32 23 A 1 1 0 0 0 31 24 A 1 1 0 0 0 32 25 A 1 1 0 0 0 33 24 A 1 1 0 0 0 32 23 z M 36 23 A 1 1 0 0 0 35 24 A 1 1 0 0 0 36 25 A 1 1 0 0 0 37 24 A 1 1 0 0 0 36 23 z M 40 23 A 1 1 0 0 0 39 24 A 1 1 0 0 0 40 25 A 1 1 0 0 0 41 24 A 1 1 0 0 0 40 23 z M 44 23 A 1 1 0 0 0 43 24 A 1 1 0 0 0 44 25 A 1 1 0 0 0 45 24 A 1 1 0 0 0 44 23 z M 48 23 A 1 1 0 0 0 47 24 A 1 1 0 0 0 48 25 A 1 1 0 0 0 49 24 A 1 1 0 0 0 48 23 z M 52 23 A 1 1 0 0 0 51 24 A 1 1 0 0 0 52 25 A 1 1 0 0 0 53 24 A 1 1 0 0 0 52 23 z M 56 23 A 1 1 0 0 0 55 24 A 1 1 0 0 0 56 25 A 1 1 0 0 0 57 24 A 1 1 0 0 0 56 23 z M 60 23 A 1 1 0 0 0 59 24 A 1 1 0 0 0 60 25 A 1 1 0 0 0 61 24 A 1 1 0 0 0 60 23 z M 64 23 A 1 1 0 0 0 63 24 A 1 1 0 0 0 64 25 A 1 1 0 0 0 65 24 A 1 1 0 0 0 64 23 z M 24 27 A 1 1 0 0 0 23 28 A 1 1 0 0 0 24 29 A 1 1 0 0 0 25 28 A 1 1 0 0 0 24 27 z M 40 27 A 1 1 0 0 0 39 28 A 1 1 0 0 0 40 29 A 1 1 0 0 0 41 28 A 1 1 0 0 0 40 27 z M 56 27 A 1 1 0 0 0 55 28 A 1 1 0 0 0 56 29 A 1 1 0 0 0 57 28 A 1 1 0 0 0 56 27 z M 24 31 A 1 1 0 0 0 23 32 A 1 1 0 0 0 24 33 A 1 1 0 0 0 25 32 A 1 1 0 0 0 24 31 z M 40 31 A 1 1 0 0 0 39 32 A 1 1 0 0 0 40 33 A 1 1 0 0 0 41 32 A 1 1 0 0 0 40 31 z M 56 31 A 1 1 0 0 0 55 32 A 1 1 0 0 0 56 33 A 1 1 0 0 0 57 32 A 1 1 0 0 0 56 31 z M 24 35 A 1 1 0 0 0 23 36 A 1 1 0 0 0 24 37 A 1 1 0 0 0 25 36 A 1 1 0 0 0 24 35 z M 40 35 A 1 1 0 0 0 39 36 A 1 1 0 0 0 40 37 A 1 1 0 0 0 41 36 A 1 1 0 0 0 40 35 z M 56 35 A 1 1 0 0 0 55 36 A 1 1 0 0 0 56 37 A 1 1 0 0 0 57 36 A 1 1 0 0 0 56 35 z M 16 39 A 1 1 0 0 0 15 40 A 1 1 0 0 0 16 41 A 1 1 0 0 0 17 40 A 1 1 0 0 0 16 39 z M 20 39 A 1 1 0 0 0 19 40 A 1 1 0 0 0 20 41 A 1 1 0 0 0 21 40 A 1 1 0 0 0 20 39 z M 24 39 A 1 1 0 0 0 23 40 A 1 1 0 0 0 24 41 A 1 1 0 0 0 25 40 A 1 1 0 0 0 24 39 z M 28 39 A 1 1 0 0 0 27 40 A 1 1 0 0 0 28 41 A 1 1 0 0 0 29 40 A 1 1 0 0 0 28 39 z M 32 39 A 1 1 0 0 0 31 40 A 1 1 0 0 0 32 41 A 1 1 0 0 0 33 40 A 1 1 0 0 0 32 39 z M 36 39 A 1 1 0 0 0 35 40 A 1 1 0 0 0 36 41 A 1 1 0 0 0 37 40 A 1 1 0 0 0 36 39 z M 40 39 A 1 1 0 0 0 39 40 A 1 1 0 0 0 40 41 A 1 1 0 0 0 41 40 A 1 1 0 0 0 40 39 z M 44 39 A 1 1 0 0 0 43 40 A 1 1 0 0 0 44 41 A 1 1 0 0 0 45 40 A 1 1 0 0 0 44 39 z M 48 39 A 1 1 0 0 0 47 40 A 1 1 0 0 0 48 41 A 1 1 0 0 0 49 40 A 1 1 0 0 0 48 39 z M 52 39 A 1 1 0 0 0 51 40 A 1 1 0 0 0 52 41 A 1 1 0 0 0 53 40 A 1 1 0 0 0 52 39 z M 56 39 A 1 1 0 0 0 55 40 A 1 1 0 0 0 56 41 A 1 1 0 0 0 57 40 A 1 1 0 0 0 56 39 z M 60 39 A 1 1 0 0 0 59 40 A 1 1 0 0 0 60 41 A 1 1 0 0 0 61 40 A 1 1 0 0 0 60 39 z M 64 39 A 1 1 0 0 0 63 40 A 1 1 0 0 0 64 41 A 1 1 0 0 0 65 40 A 1 1 0 0 0 64 39 z M 24 43 A 1 1 0 0 0 23 44 A 1 1 0 0 0 24 45 A 1 1 0 0 0 25 44 A 1 1 0 0 0 24 43 z M 40 43 A 1 1 0 0 0 39 44 A 1 1 0 0 0 40 45 A 1 1 0 0 0 41 44 A 1 1 0 0 0 40 43 z M 56 43 A 1 1 0 0 0 55 44 A 1 1 0 0 0 56 45 A 1 1 0 0 0 57 44 A 1 1 0 0 0 56 43 z M 24 47 A 1 1 0 0 0 23 48 A 1 1 0 0 0 24 49 A 1 1 0 0 0 25 48 A 1 1 0 0 0 24 47 z M 40 47 A 1 1 0 0 0 39 48 A 1 1 0 0 0 40 49 A 1 1 0 0 0 41 48 A 1 1 0 0 0 40 47 z M 56 47 A 1 1 0 0 0 55 48 A 1 1 0 0 0 56 49 A 1 1 0 0 0 57 48 A 1 1 0 0 0 56 47 z M 24 51 A 1 1 0 0 0 23 52 A 1 1 0 0 0 24 53 A 1 1 0 0 0 25 52 A 1 1 0 0 0 24 51 z M 40 51 A 1 1 0 0 0 39 52 A 1 1 0 0 0 40 53 A 1 1 0 0 0 41 52 A 1 1 0 0 0 40 51 z M 56 51 A 1 1 0 0 0 55 52 A 1 1 0 0 0 56 53 A 1 1 0 0 0 57 52 A 1 1 0 0 0 56 51 z M 16 55 A 1 1 0 0 0 15 56 A 1 1 0 0 0 16 57 A 1 1 0 0 0 17 56 A 1 1 0 0 0 16 55 z M 20 55 A 1 1 0 0 0 19 56 A 1 1 0 0 0 20 57 A 1 1 0 0 0 21 56 A 1 1 0 0 0 20 55 z M 24 55 A 1 1 0 0 0 23 56 A 1 1 0 0 0 24 57 A 1 1 0 0 0 25 56 A 1 1 0 0 0 24 55 z M 28 55 A 1 1 0 0 0 27 56 A 1 1 0 0 0 28 57 A 1 1 0 0 0 29 56 A 1 1 0 0 0 28 55 z M 32 55 A 1 1 0 0 0 31 56 A 1 1 0 0 0 32 57 A 1 1 0 0 0 33 56 A 1 1 0 0 0 32 55 z M 36 55 A 1 1 0 0 0 35 56 A 1 1 0 0 0 36 57 A 1 1 0 0 0 37 56 A 1 1 0 0 0 36 55 z M 40 55 A 1 1 0 0 0 39 56 A 1 1 0 0 0 40 57 A 1 1 0 0 0 41 56 A 1 1 0 0 0 40 55 z M 44 55 A 1 1 0 0 0 43 56 A 1 1 0 0 0 44 57 A 1 1 0 0 0 45 56 A 1 1 0 0 0 44 55 z M 48 55 A 1 1 0 0 0 47 56 A 1 1 0 0 0 48 57 A 1 1 0 0 0 49 56 A 1 1 0 0 0 48 55 z M 52 55 A 1 1 0 0 0 51 56 A 1 1 0 0 0 52 57 A 1 1 0 0 0 53 56 A 1 1 0 0 0 52 55 z M 56 55 A 1 1 0 0 0 55 56 A 1 1 0 0 0 56 57 A 1 1 0 0 0 57 56 A 1 1 0 0 0 56 55 z M 60 55 A 1 1 0 0 0 59 56 A 1 1 0 0 0 60 57 A 1 1 0 0 0 61 56 A 1 1 0 0 0 60 55 z M 64 55 A 1 1 0 0 0 63 56 A 1 1 0 0 0 64 57 A 1 1 0 0 0 65 56 A 1 1 0 0 0 64 55 z M 24 59 A 1 1 0 0 0 23 60 A 1 1 0 0 0 24 61 A 1 1 0 0 0 25 60 A 1 1 0 0 0 24 59 z M 40 59 A 1 1 0 0 0 39 60 A 1 1 0 0 0 40 61 A 1 1 0 0 0 41 60 A 1 1 0 0 0 40 59 z M 56 59 A 1 1 0 0 0 55 60 A 1 1 0 0 0 56 61 A 1 1 0 0 0 57 60 A 1 1 0 0 0 56 59 z M 24 63 A 1 1 0 0 0 23 64 A 1 1 0 0 0 24 65 A 1 1 0 0 0 25 64 A 1 1 0 0 0 24 63 z M 40 63 A 1 1 0 0 0 39 64 A 1 1 0 0 0 40 65 A 1 1 0 0 0 41 64 A 1 1 0 0 0 40 63 z M 56 63 A 1 1 0 0 0 55 64 A 1 1 0 0 0 56 65 A 1 1 0 0 0 57 64 A 1 1 0 0 0 56 63 z"></path>
</svg>