<svg xmlns="http://www.w3.org/2000/svg" xmlns:xlink="http://www.w3.org/1999/xlink" viewBox="0 0 80 80" version="1.1">
<g id="surface1">
<path style=" " d="M 33 12 C 31.355469 12 30 13.355469 30 15 L 30 17 L 10 17 L 10 19 L 30 19 L 30 21 C 30 22.644531 31.355469 24 33 24 L 35 24 C 36.644531 24 38 22.644531 38 21 L 38 15 C 38 13.355469 36.644531 12 35 12 Z M 33 14 L 35 14 C 35.566406 14 36 14.433594 36 15 L 36 21 C 36 21.566406 35.566406 22 35 22 L 33 22 C 32.433594 22 32 21.566406 32 21 L 32 15 C 32 14.433594 32.433594 14 33 14 Z M 41 17 C 40.449219 17 40 17.449219 40 18 C 40 18.550781 40.449219 19 41 19 C 41.550781 19 42 18.550781 42 18 C 42 17.449219 41.550781 17 41 17 Z M 45 17 C 44.449219 17 44 17.449219 44 18 C 44 18.550781 44.449219 19 45 19 C 45.550781 19 46 18.550781 46 18 C 46 17.449219 45.550781 17 45 17 Z M 49 17 C 48.449219 17 48 17.449219 48 18 C 48 18.550781 48.449219 19 49 19 C 49.550781 19 50 18.550781 50 18 C 50 17.449219 49.550781 17 49 17 Z M 53 17 C 52.449219 17 52 17.449219 52 18 C 52 18.550781 52.449219 19 53 19 C 53.550781 19 54 18.550781 54 18 C 54 17.449219 53.550781 17 53 17 Z M 57 17 C 56.449219 17 56 17.449219 56 18 C 56 18.550781 56.449219 19 57 19 C 57.550781 19 58 18.550781 58 18 C 58 17.449219 57.550781 17 57 17 Z M 61 17 C 60.449219 17 60 17.449219 60 18 C 60 18.550781 60.449219 19 61 19 C 61.550781 19 62 18.550781 62 18 C 62 17.449219 61.550781 17 61 17 Z M 65 17 C 64.449219 17 64 17.449219 64 18 C 64 18.550781 64.449219 19 65 19 C 65.550781 19 66 18.550781 66 18 C 66 17.449219 65.550781 17 65 17 Z M 69 17 C 68.449219 17 68 17.449219 68 18 C 68 18.550781 68.449219 19 69 19 C 69.550781 19 70 18.550781 70 18 C 70 17.449219 69.550781 17 69 17 Z M 53 34 C 51.355469 34 50 35.355469 50 37 L 50 39 L 10 39 L 10 41 L 50 41 L 50 43 C 50 44.644531 51.355469 46 53 46 L 55 46 C 56.644531 46 58 44.644531 58 43 L 58 37 C 58 35.355469 56.644531 34 55 34 Z M 53 36 L 55 36 C 55.566406 36 56 36.433594 56 37 L 56 43 C 56 43.566406 55.566406 44 55 44 L 53 44 C 52.433594 44 52 43.566406 52 43 L 52 37 C 52 36.433594 52.433594 36 53 36 Z M 61 39 C 60.449219 39 60 39.449219 60 40 C 60 40.550781 60.449219 41 61 41 C 61.550781 41 62 40.550781 62 40 C 62 39.449219 61.550781 39 61 39 Z M 65 39 C 64.449219 39 64 39.449219 64 40 C 64 40.550781 64.449219 41 65 41 C 65.550781 41 66 40.550781 66 40 C 66 39.449219 65.550781 39 65 39 Z M 69 39 C 68.449219 39 68 39.449219 68 40 C 68 40.550781 68.449219 41 69 41 C 69.550781 41 70 40.550781 70 40 C 70 39.449219 69.550781 39 69 39 Z M 25 56 C 23.355469 56 22 57.355469 22 59 L 22 61 L 10 61 L 10 63 L 22 63 L 22 65 C 22 66.644531 23.355469 68 25 68 L 27 68 C 28.644531 68 30 66.644531 30 65 L 30 59 C 30 57.355469 28.644531 56 27 56 Z M 25 58 L 27 58 C 27.566406 58 28 58.433594 28 59 L 28 65 C 28 65.566406 27.566406 66 27 66 L 25 66 C 24.433594 66 24 65.566406 24 65 L 24 59 C 24 58.433594 24.433594 58 25 58 Z M 33 61 C 32.449219 61 32 61.449219 32 62 C 32 62.550781 32.449219 63 33 63 C 33.550781 63 34 62.550781 34 62 C 34 61.449219 33.550781 61 33 61 Z M 37 61 C 36.449219 61 36 61.449219 36 62 C 36 62.550781 36.449219 63 37 63 C 37.550781 63 38 62.550781 38 62 C 38 61.449219 37.550781 61 37 61 Z M 41 61 C 40.449219 61 40 61.449219 40 62 C 40 62.550781 40.449219 63 41 63 C 41.550781 63 42 62.550781 42 62 C 42 61.449219 41.550781 61 41 61 Z M 45 61 C 44.449219 61 44 61.449219 44 62 C 44 62.550781 44.449219 63 45 63 C 45.550781 63 46 62.550781 46 62 C 46 61.449219 45.550781 61 45 61 Z M 49 61 C 48.449219 61 48 61.449219 48 62 C 48 62.550781 48.449219 63 49 63 C 49.550781 63 50 62.550781 50 62 C 50 61.449219 49.550781 61 49 61 Z M 53 61 C 52.449219 61 52 61.449219 52 62 C 52 62.550781 52.449219 63 53 63 C 53.550781 63 54 62.550781 54 62 C 54 61.449219 53.550781 61 53 61 Z M 57 61 C 56.449219 61 56 61.449219 56 62 C 56 62.550781 56.449219 63 57 63 C 57.550781 63 58 62.550781 58 62 C 58 61.449219 57.550781 61 57 61 Z M 61 61 C 60.449219 61 60 61.449219 60 62 C 60 62.550781 60.449219 63 61 63 C 61.550781 63 62 62.550781 62 62 C 62 61.449219 61.550781 61 61 61 Z M 65 61 C 64.449219 61 64 61.449219 64 62 C 64 62.550781 64.449219 63 65 63 C 65.550781 63 66 62.550781 66 62 C 66 61.449219 65.550781 61 65 61 Z M 69 61 C 68.449219 61 68 61.449219 68 62 C 68 62.550781 68.449219 63 69 63 C 69.550781 63 70 62.550781 70 62 C 70 61.449219 69.550781 61 69 61 Z "></path>
</g>
</svg>