<svg xmlns="http://www.w3.org/2000/svg" xmlns:xlink="http://www.w3.org/1999/xlink" viewBox="0 0 26 26" version="1.1">
<g id="surface1">
<path style=" " d="M 21.625 0 C 20.503906 0 19.386719 0.425781 18.53125 1.28125 C 18.464844 1.34375 16.339844 3.472656 15.4375 4.375 L 14.75 3.6875 C 14.371094 3.308594 13.753906 3.308594 13.375 3.6875 L 11.3125 5.75 C 10.933594 6.128906 10.933594 6.746094 11.3125 7.125 L 11.96875 7.78125 L 5.09375 14.65625 C 4.023438 15.726563 3.417969 16.519531 3.03125 17.21875 C 2.644531 17.917969 2.523438 18.539063 2.4375 18.96875 C 2.351563 19.398438 2.289063 19.664063 2.03125 20.125 C 1.773438 20.585938 1.273438 21.226563 0.28125 22.21875 C 0.0859375 22.40625 -0.0234375 22.667969 -0.0234375 22.9375 C -0.0234375 23.207031 0.0859375 23.46875 0.28125 23.65625 L 2.34375 25.71875 C 2.53125 25.914063 2.792969 26.023438 3.0625 26.023438 C 3.332031 26.023438 3.59375 25.914063 3.78125 25.71875 C 4.773438 24.726563 5.414063 24.226563 5.875 23.96875 C 6.335938 23.710938 6.601563 23.648438 7.03125 23.5625 C 7.460938 23.476563 8.082031 23.355469 8.78125 22.96875 C 9.480469 22.582031 10.273438 21.976563 11.34375 20.90625 C 12.59375 19.65625 17.277344 14.972656 18.21875 14.03125 L 18.875 14.6875 C 19.253906 15.066406 19.871094 15.066406 20.25 14.6875 L 22.3125 12.625 C 22.695313 12.246094 22.691406 11.628906 22.3125 11.25 L 21.625 10.5625 C 22.527344 9.660156 24.652344 7.53125 24.71875 7.46875 C 26.429688 5.757813 26.429688 2.988281 24.71875 1.28125 C 23.863281 0.425781 22.746094 0 21.625 0 Z M 13.375 9.25 L 16.75 12.625 C 15.777344 13.597656 11.152344 18.226563 9.90625 19.46875 C 8.914063 20.460938 8.242188 20.960938 7.78125 21.21875 C 7.320313 21.476563 7.085938 21.539063 6.65625 21.625 C 6.226563 21.710938 5.605469 21.832031 4.90625 22.21875 C 4.425781 22.484375 3.757813 23.0625 3.125 23.625 L 2.375 22.875 C 2.9375 22.242188 3.515625 21.574219 3.78125 21.09375 C 4.167969 20.394531 4.289063 19.773438 4.375 19.34375 C 4.460938 18.914063 4.523438 18.648438 4.78125 18.1875 C 5.039063 17.726563 5.539063 17.085938 6.53125 16.09375 Z "></path>
</g>
</svg>